{
  "accessors": [
    {
      "bufferView": 2,
      "componentType": 5126,
      "count": 23830,
      "max": [
        0.15029099583625793,
        0.05707300081849098,
        0.2188979983329773
      ],
      "min": [
        -0.1483590006828308,
        -0.0534369982779026,
        0.00011600000289035961
      ],
      "type": "VEC3"
    },
    {
      "bufferView": 2,
      "byteOffset": 285960,
      "componentType": 5126,
      "count": 23830,
      "max": [
        0.999615490436554,
        0.9999765157699585,
        0.9999399185180664
      ],
      "min": [
        -0.9998242259025574,
        -0.9999980926513672,
        -0.9999871253967285
      ],
      "type": "VEC3"
    },
    {
      "bufferView": 3,
      "componentType": 5126,
      "count": 23830,
      "max": [
        0.9999931454658508,
        0.9998533725738525,
        0.9999228119850159,
        1.0
      ],
      "min": [
        -0.9994579553604126,
        -0.9998741745948792,
        -0.9997718930244446,
        -1.0
      ],
      "type": "VEC4"
    },
    {
      "bufferView": 1,
      "componentType": 5126,
      "count": 23830,
      "max": [
        0.9980469942092896,
        0.9848470091819763
      ],
      "min": [
        0.0019529999699443579,
        0.0019529999699443579
      ],
      "type": "VEC2"
    },
    {
      "bufferView": 0,
      "componentType": 5125,
      "count": 59700,
      "type": "SCALAR"
    }
  ],
  "asset": {
    "extras": {
      "author": "inciprocal (https://sketchfab.com/inciprocal.com)",
      "license": "CC-BY-4.0 (http://creativecommons.org/licenses/by/4.0/)",
      "source": "https://sketchfab.com/3d-models/old-lowa-gore-tex-boot-2021-free-417531d1bfcd4fc39f9cedbc1c85963e",
      "title": "Old Lowa Gore-Tex Boot (2021 / FREE)"
    },
    "generator": "Sketchfab-14.64.0",
    "version": "2.0"
  },
  "bufferViews": [
    {
      "buffer": 0,
      "byteLength": 238800,
      "name": "floatBufferViews",
      "target": 34963
    },
    {
      "buffer": 0,
      "byteLength": 190640,
      "byteOffset": 238800,
      "byteStride": 8,
      "name": "floatBufferViews",
      "target": 34962
    },
    {
      "buffer": 0,
      "byteLength": 571920,
      "byteOffset": 429440,
      "byteStride": 12,
      "name": "floatBufferViews",
      "target": 34962
    },
    {
      "buffer": 0,
      "byteLength": 381280,
      "byteOffset": 1001360,
      "byteStride": 16,
      "name": "floatBufferViews",
      "target": 34962
    }
  ],
  "buffers": [
    {
      "byteLength": 1382640,
      "uri": "scene.bin"
    }
  ],
  "extensionsRequired": [
    "KHR_materials_pbrSpecularGlossiness"
  ],
  "extensionsUsed": [
    "KHR_materials_pbrSpecularGlossiness"
  ],
  "images": [
    {
      "uri": "textures/sh_lowaTibetGT_diffuse.jpeg"
    },
    {
      "uri": "textures/sh_lowaTibetGT_specularGlossiness.png"
    },
    {
      "uri": "textures/sh_lowaTibetGT_normal.jpeg"
    },
    {
      "uri": "textures/sh_lowaTibetGT_occlusion.png"
    }
  ],
  "materials": [
    {
      "doubleSided": true,
      "extensions": {
        "KHR_materials_pbrSpecularGlossiness": {
          "diffuseFactor": [
            0.9623774085085943,
            0.9623774085085943,
            0.9623774085085943,
            1.0
          ],
          "diffuseTexture": {
            "index": 0
          },
          "glossinessFactor": 1.0,
          "specularFactor": [
            0.35,
            0.35,
            0.35
          ],
          "specularGlossinessTexture": {
            "index": 1
          }
        }
      },
      "name": "sh_lowaTibetGT",
      "normalTexture": {
        "index": 2
      },
      "occlusionTexture": {
        "index": 3
      }
    }
  ],
  "meshes": [
    {
      "name": "Object_0",
      "primitives": [
        {
          "attributes": {
            "NORMAL": 1,
            "POSITION": 0,
            "TANGENT": 2,
            "TEXCOORD_0": 3
          },
          "indices": 4,
          "material": 0,
          "mode": 4
        }
      ]
    }
  ],
  "nodes": [
    {
      "children": [
        1
      ],
      "matrix": [
        0.8747625350952148,
        -1.0759213004604606e-16,
        0.48455187678337097,
        0.0,
        0.48455187678337097,
        3.34240392126629e-17,
        -0.8747625350952148,
        0.0,
        7.7921889392708e-17,
        1.0,
        8.137205972766668e-17,
        0.0,
        0.0,
        0.0,
        0.0,
        1.0
      ],
      "name": "Sketchfab_model"
    },
    {
      "children": [
        2
      ],
      "name": "sh_lowaTibetGT.obj.cleaner.materialmerger.gles"
    },
    {
      "mesh": 0,
      "name": "Object_2"
    }
  ],
  "samplers": [
    {
      "magFilter": 9729,
      "minFilter": 9987,
      "wrapS": 10497,
      "wrapT": 10497
    }
  ],
  "scene": 0,
  "scenes": [
    {
      "name": "Sketchfab_Scene",
      "nodes": [
        0
      ]
    }
  ],
  "textures": [
    {
      "sampler": 0,
      "source": 0
    },
    {
      "sampler": 0,
      "source": 1
    },
    {
      "sampler": 0,
      "source": 2
    },
    {
      "sampler": 0,
      "source": 3
    }
  ]
}
